<svg xmlns="http://www.w3.org/2000/svg" viewBox="0 0 48 58" fill="none">
  <defs>
    <linearGradient id="pin" x1="24" y1="2" x2="24" y2="54" gradientUnits="userSpaceOnUse">
      <stop offset="0%" stop-color="#4AADE0"/>
      <stop offset="60%" stop-color="#1E55B0"/>
      <stop offset="100%" stop-color="#0B2265"/>
    </linearGradient>
  </defs>
  <!-- Pin body -->
  <path d="M24 54C24 54 4 33 4 19.5C4 9.28 12.95 1 24 1C35.05 1 44 9.28 44 19.5C44 33 24 54 24 54Z" fill="url(#pin)"/>
  <!-- White inner circle -->
  <circle cx="24" cy="19.5" r="11" fill="white" opacity="0.95"/>
  <!-- Window (4-pane) -->
  <rect x="17.5" y="13.5" width="5.5" height="5" rx="0.8" fill="#0B2265"/>
  <rect x="25" y="13.5" width="5.5" height="5" rx="0.8" fill="#0B2265"/>
  <rect x="17.5" y="20.5" width="5.5" height="5" rx="0.8" fill="#0B2265"/>
  <rect x="25" y="20.5" width="5.5" height="5" rx="0.8" fill="#0B2265"/>
  <!-- Orange roof -->
  <path d="M9 21L24 6.5L39 21" stroke="#F47520" stroke-width="4.5" stroke-linecap="round" stroke-linejoin="round" fill="none"/>
  <!-- Chimney -->
  <path d="M13.5 16.5V10.5" stroke="#E8601A" stroke-width="3.5" stroke-linecap="round"/>
</svg>
